<svg width="20" height="21" viewBox="0 0 20 21" fill="none" xmlns="http://www.w3.org/2000/svg">
<path d="M4.52637 10.3359C7.69922 10.3447 10.3008 12.9463 10.3008 16.1104C10.3008 17.1738 10.002 18.1846 9.4834 19.0459H16.7607C18.6504 19.0459 19.626 18.0527 19.626 16.1543V8.28809H13.0342C11.9355 8.28809 11.4082 7.76074 11.4082 6.66211V0H7.3916C5.51074 0 4.52637 0.993164 4.52637 2.90039V10.3359ZM13.2012 7.00488H19.5381C19.4854 6.60059 19.1953 6.22266 18.7383 5.75684L13.9307 0.887695C13.4912 0.439453 13.0957 0.140625 12.6914 0.0878906V6.49512C12.6914 6.83789 12.8672 7.00488 13.2012 7.00488ZM4.52637 20.6455C6.9873 20.6455 9.06152 18.5889 9.06152 16.1104C9.06152 13.6318 7.01367 11.584 4.52637 11.584C2.04785 11.584 0 13.6318 0 16.1104C0 18.5977 2.04785 20.6455 4.52637 20.6455ZM6.96094 16.8574C6.54785 16.8574 6.21387 16.5146 6.21387 16.1104C6.21387 15.7148 6.54785 15.3633 6.96094 15.3633C7.36523 15.3633 7.69922 15.7148 7.69922 16.1104C7.69922 16.5146 7.36523 16.8574 6.96094 16.8574ZM2.0918 16.8486C1.6875 16.8486 1.3623 16.5059 1.3623 16.1104C1.3623 15.7148 1.6875 15.3721 2.0918 15.3721C2.49609 15.3721 2.83008 15.7148 2.83008 16.1104C2.83008 16.5059 2.49609 16.8486 2.0918 16.8486ZM4.53516 16.8486C4.13086 16.8486 3.79688 16.5059 3.79688 16.1104C3.79688 15.7148 4.13086 15.3721 4.53516 15.3721C4.93066 15.3721 5.27344 15.7148 5.27344 16.1104C5.27344 16.5059 4.93066 16.8486 4.53516 16.8486Z" fill="white"/>
</svg>
